<svg xmlns="http://www.w3.org/2000/svg" viewBox="0 0 40.9815 39.1697">
  <g id="full-rgb">
    <g id="logoMark">
      <path id="logoMark_CompoundPathItem_" data-name="logoMark &lt;CompoundPathItem&gt;" d="M16.9488,15.4659V0H0V15.4659L.0016,31.6022l2.0119-.7685a28.2394,28.2394,0,0,1,8.9734-1.5494,28.24,28.24,0,0,1,8.9716,1.5488A30.7724,30.7724,0,0,0,29.9949,32.58a30.77,30.77,0,0,0,10.036-1.7465l.9506-.3655V15.9682L16.9488,25.9554Zm21.0671,4.9463V28.38a28.57,28.57,0,0,1-8.021,1.2337,28.25,28.25,0,0,1-8.9719-1.5486c-.0431-.0165-.3153-.12-.7758-.2689ZM13.9831,15.4659V26.4847a28.3009,28.3009,0,0,0-2.9962-.166,31.1653,31.1653,0,0,0-8.0213,1.11V2.9656H13.9831Z" style="fill: #005670"/>
      <path id="logoMark_PathItem_" data-name="logoMark &lt;PathItem&gt;" d="M21.023,34.6553a30.779,30.779,0,0,0-10.0361-1.7462A35.5576,35.5576,0,0,0,0,34.9744l.0016,3.1049c.0405-.0155,6.124-2.2046,10.9853-2.2046a28.2369,28.2369,0,0,1,8.9716,1.5488A30.78,30.78,0,0,0,29.9949,39.17a35.523,35.523,0,0,0,10.9866-2.0676V34.0156c-.04.0155-6.1256,2.1885-10.9866,2.1885A28.2376,28.2376,0,0,1,21.023,34.6553Z" style="fill: #005670"/>
    </g>
  </g>
</svg>
