<?xml version="1.0" encoding="utf-8"?>
<!-- Generator: Adobe Illustrator 21.1.0, SVG Export Plug-In . SVG Version: 6.00 Build 0)  -->
<svg version="1.0" id="Layer_1" xmlns="http://www.w3.org/2000/svg" xmlns:xlink="http://www.w3.org/1999/xlink" x="0px" y="0px"
	 viewBox="0 0 107.5 133.2" style="enable-background:new 0 0 107.5 133.2;" xml:space="preserve">
<style type="text/css">
	.st0{clip-path:url(#SVGID_2_);fill:#1C5E99;}
	.st1{clip-path:url(#SVGID_2_);fill:#4C9BD5;}
	.st2{clip-path:url(#SVGID_2_);fill:#DFE01C;}
	.st3{clip-path:url(#SVGID_2_);fill:#DA1F26;}
</style>
<g>
	<defs>
		<path id="SVGID_1_" d="M0.5,126.4V55V37.2l0,0v-31c0-0.4,0-0.8,0.1-1.2c0,0,0-0.1,0-0.1c0.1-0.3,0.2-0.7,0.3-1
			c0.2-0.5,0.5-1,0.9-1.4C1.9,2.4,2,2.2,2.1,2c0.1-0.1,0.3-0.3,0.4-0.4c0,0,0,0,0,0c0,0,0,0,0,0C3.1,1.3,3.6,1,4.1,0.8
			c0.7-0.3,1.4-0.4,2.2-0.4H58c5.6,0,10.8,1,15.5,2.9c3.6,1.5,6.9,3.5,10,6.1c1,0.9,2.1,1.8,3,2.8c3.9,4,6.9,8.3,8.8,13.1
			c0.2,0.6,0.5,1.2,0.7,1.8c0.1,0.2,0.1,0.4,0.2,0.6c0.1,0.4,0.3,0.8,0.4,1.2c0.1,0.2,0.1,0.5,0.2,0.7c0.1,0.4,0.2,0.8,0.3,1.2
			c0.1,0.3,0.1,0.5,0.2,0.8c0.1,0.3,0.1,0.5,0.2,0.8c0,0,0-0.1,0-0.1l0,0.2l0,0l0,0c0,0,0,0,0,0c0,0,0,0,0,0.1
			c0.1,0.6,0.2,1.2,0.3,1.8c0,0.1,0,0.1,0,0.2c0.1,0.6,0.2,1.2,0.2,1.8c0,0.1,0,0.2,0,0.3c0.1,0.6,0.1,1.2,0.1,1.8
			c0,0.1,0,0.2,0,0.4c0,0.7,0,1.4,0,2.1c0,1.9-0.1,3.7-0.4,5.6c-0.3,1.9-0.7,3.7-1.2,5.7l-0.2,0.8l-0.1,0.5l0,0
			c-0.8,2.3-1.7,4.6-2.9,6.7c-1,1.8-2,3.5-3.2,5.1l-2.8,3.1c-4,4.3-8.4,7.6-13.3,9.7C69.3,80,63.9,81,58,81h-8.5h-2.8v2.8v16.9H35
			V75.3l0,0l0-0.4h0V60.1V39.9l0-5l0.3,0H58c0.7,0,1.3,0.1,1.9,0.3c0.1,0,0.2,0.1,0.4,0.1c0.5,0.2,1,0.5,1.4,0.9
			c0.1,0.1,0.3,0.3,0.4,0.4c0.2,0.2,0.4,0.5,0.6,0.7c0,0,0.1,0.1,0.1,0.1c0.2,0.2,0.3,0.5,0.4,0.7c0,0,0,0,0,0.1l0.1,0.2
			c0.3,0.7,0.4,1.4,0.4,2.2c0,0.8-0.1,1.6-0.4,2.3h0c-0.3,0.7-0.7,1.3-1.3,1.9c-0.6,0.6-1.2,1-1.8,1.2c-0.7,0.3-1.4,0.4-2.3,0.4
			h-8.5h-2.8v2.8v11v6.3v2.8h2.8H58c4,0,7.6-0.7,11.1-2.1c3.4-1.4,6.5-3.5,9.3-6.3c1.4-1.4,2.6-2.9,3.7-4.4h0c1-1.5,1.9-3.2,2.6-4.8
			c1.4-3.4,2.1-7.1,2.1-11c0-0.7,0-1.5-0.1-2.2c0-0.2,0-0.3,0-0.5c-0.1-0.7-0.1-1.4-0.3-2c0-0.1-0.1-0.3-0.1-0.4
			C86.2,35,86.1,34.5,86,34c-0.1-0.2-0.1-0.5-0.2-0.7c-0.2-0.7-0.4-1.4-0.6-2.1c0,0,0,0,0,0c-0.1-0.3-0.2-0.5-0.3-0.8
			c-1-2.7-2.5-5.2-4.3-7.6l0,0l0,0c-1.2-1.5-2.5-2.8-3.9-4c-0.7-0.6-1.5-1.2-2.3-1.8c-0.3-0.2-0.5-0.4-0.8-0.6
			c-0.1-0.1-0.2-0.1-0.3-0.2c-1.6-1-3.3-1.8-5-2.4c-1.1-0.4-2.2-0.8-3.3-1v0c-0.5-0.1-1.1-0.2-1.6-0.3c0,0,0,0,0,0
			c-0.3-0.1-0.6-0.1-1-0.1c-0.3,0-0.5-0.1-0.8-0.1c-0.1,0-0.2,0-0.3,0C59.8,12,58.6,12,57.5,12H14.9l0,0l0,0h-2.8v2.8v23.7v19v60.9
			v2.8h2.8H58c5.1,0,9.9-0.9,14.3-2.7c4.4-1.8,8.5-4.6,12.1-8.2c3.6-3.6,6.4-7.7,8.2-12.1c1.8-4.4,2.8-9.2,2.8-14.4
			c0-2.6-0.3-5.1-0.8-7.6c-0.3-1.3-0.6-2.6-1.1-3.9c2.3-2.5,4.4-5.7,6.2-9c0.5-0.9,0.9-1.9,1.4-2.8c1.4,2.5,2.6,5.2,3.5,7.9
			c1.6,4.9,2.4,10.1,2.4,15.5c0,13.5-4.8,25.1-14.4,34.6l0,0c-4.8,4.8-10,8.4-15.8,10.8c-5.7,2.4-12,3.6-18.8,3.6H6.3H0.5L0.5,126.4
			z"/>
	</defs>
	<clipPath id="SVGID_2_">
		<use xlink:href="#SVGID_1_"  style="overflow:visible;"/>
	</clipPath>
	<polygon class="st0" points="124.1,146.6 47.1,146.6 47.1,69.6 124.1,53 	"/>
	<polyline class="st1" points="19.5,34.2 19.5,69.5 -30.4,69.4 -30.4,-7.6 46.6,-7.6 47,34.2 	"/>
	<polyline class="st1" points="49.1,54.3 49.1,80.6 31.9,80.6 31.9,33.4 68.4,33.4 68.8,54.3 	"/>
	<polygon class="st2" points="34.6,69.5 -29.9,69.5 -29.9,146.5 47.1,146.5 47.1,69.5 34.5,69.5 	"/>
	<polygon class="st3" points="86.9,79.1 46.7,85.2 46.7,81.1 46.7,81.1 46.7,69.4 46.7,69.4 46.7,48.2 65.2,47.1 65.2,34.7 
		46.7,34.1 46.7,-7.4 123.7,-7.4 	"/>
</g>
</svg>
